# xmcd
#
# Track frame offsets:
#	150
#	15067
#	25279
#	43807
#	57976
#	78226
#	90922
#	106340
#	118860
#	135370
#	148600
#
# Disc length: 2213 seconds
#
# Revision: 1
# Processed by: cddbd v1.5.2PL0 Copyright (c) Steve Scherf et al.
# Submitted via: audiograbber 1.83.01
#
DISCID=8008a30b
DTITLE=Willie Nelson - Summertime: Willie Nelson Sings Gershwin
DYEAR=2016
DGENRE=Country
TTITLE0=But Not for Me
TTITLE1=Somebody Loves Me
TTITLE2=Someone to Watch Over Me
TTITLE3=Let's Call the Whole Thing Off
TTITLE4=It Ain't Necessarily So
TTITLE5=I Got Rhythm
TTITLE6=Love is Here to Stay
TTITLE7=They All Laughed
TTITLE8=Embraceable You
TTITLE9=They Can't Take That Away from Me
TTITLE10=Summertime
EXTD=
EXTT0=
EXTT1=
EXTT2=
EXTT3=
EXTT4=
EXTT5=
EXTT6=
EXTT7=
EXTT8=
EXTT9=
EXTT10=
PLAYORDER=
